<svg width="218" height="53" fill="none" xmlns="http://www.w3.org/2000/svg"><path d="M45.425 44.712c-5.04 5.04-11.208 7.56-18.504 7.56-7.296 0-13.488-2.52-18.576-7.56-5.04-5.088-7.56-11.28-7.56-18.576 0-7.296 2.52-13.464 7.56-18.504C13.433 2.544 19.625 0 26.92 0c7.296 0 13.464 2.544 18.504 7.632 5.088 5.04 7.632 11.208 7.632 18.504 0 7.296-2.544 13.488-7.632 18.576zm-31.248-5.616c3.456 3.408 7.704 5.112 12.744 5.112s9.264-1.704 12.672-5.112c3.456-3.456 5.184-7.776 5.184-12.96 0-5.184-1.728-9.48-5.184-12.888-3.408-3.456-7.632-5.184-12.672-5.184-5.04 0-9.288 1.728-12.744 5.184-3.408 3.408-5.112 7.704-5.112 12.888s1.704 9.504 5.112 12.96zm66.975 13.176c-7.824 0-13.224-3.072-16.2-9.216l7.128-4.176c1.632 3.552 4.68 5.328 9.144 5.328 2.88 0 5.088-.696 6.624-2.088 1.584-1.44 2.376-3.456 2.376-6.048V.936h8.28v35.136c0 5.184-1.632 9.192-4.896 12.024-3.264 2.784-7.416 4.176-12.456 4.176zm48.558 0c-7.824 0-13.224-3.072-16.2-9.216l7.128-4.176c1.632 3.552 4.68 5.328 9.144 5.328 2.88 0 5.088-.696 6.624-2.088 1.584-1.44 2.376-3.456 2.376-6.048V.936h8.28v35.136c0 5.184-1.632 9.192-4.896 12.024-3.264 2.784-7.416 4.176-12.456 4.176zm79.88-7.56c-5.04 5.04-11.208 7.56-18.504 7.56-7.296 0-13.488-2.52-18.576-7.56-5.04-5.088-7.56-11.28-7.56-18.576 0-7.296 2.52-13.464 7.56-18.504C177.598 2.544 183.79 0 191.086 0c7.296 0 13.464 2.544 18.504 7.632 5.088 5.04 7.632 11.208 7.632 18.504 0 7.296-2.544 13.488-7.632 18.576zm-31.248-5.616c3.456 3.408 7.704 5.112 12.744 5.112s9.264-1.704 12.672-5.112c3.456-3.456 5.184-7.776 5.184-12.96 0-5.184-1.728-9.48-5.184-12.888-3.408-3.456-7.632-5.184-12.672-5.184-5.04 0-9.288 1.728-12.744 5.184-3.408 3.408-5.112 7.704-5.112 12.888s1.704 9.504 5.112 12.96z" fill="#fff"/></svg>